<svg width="2000" height="355" viewBox="0 0 2000 355" fill="none" xmlns="http://www.w3.org/2000/svg">
<g clip-path="url(#clip0_1_175)">
<path d="M64.5801 19.4712H41.4453V292.999H64.5801V19.4712Z" fill="white" fill-opacity="0.1"/>
<path d="M105.842 325.771H0V354.686H105.842V325.771Z" fill="#FC150E" fill-opacity="0.15"/>
<path d="M1958.54 19.4712H1935.41V292.228H1958.54V19.4712Z" fill="white" fill-opacity="0.1"/>
<path d="M2000 325.771H1894.16V354.686H2000V325.771Z" fill="#FC150E" fill-opacity="0.15"/>
<path d="M1874.69 0H125.125V19.2761H1874.69V0Z" fill="white" fill-opacity="0.1"/>
<path d="M199.542 89.0669C158.285 89.0669 125.125 113.74 125.125 144.968V241.348C125.125 272.19 157.899 296.863 199.542 296.863C241.184 296.863 273.38 272.19 273.38 241.348V144.968C273.38 113.74 240.028 89.0669 199.542 89.0669ZM240.413 241.733C240.413 261.009 224.412 272.575 199.542 272.575C174.672 272.575 157.899 260.238 157.899 241.733V145.353C157.899 126.077 173.708 114.319 199.542 114.319C225.376 114.319 240.413 126.27 240.413 145.353V241.733Z" fill="white" fill-opacity="0.1"/>
<path d="M529.585 93.4868H496.811V292.994H529.585V93.4868Z" fill="white" fill-opacity="0.1"/>
<path d="M567.186 180.822H536.918V205.688H567.186V180.822Z" fill="white" fill-opacity="0.1"/>
<path d="M537.301 93.4868H574.509C610.368 93.4868 638.708 115.654 638.708 142.448C638.708 169.242 610.368 191.217 574.509 191.217V166.35C593.788 166.35 605.934 157.291 605.934 142.448C605.934 127.605 594.174 118.353 574.509 118.353H537.301V93.4868Z" fill="white" fill-opacity="0.1"/>
<path d="M537.301 268.125H574.509C593.788 268.125 605.934 259.065 605.934 244.223C605.934 229.38 594.174 220.706 574.509 220.706V195.647C610.368 195.647 638.708 217.814 638.708 244.223C638.708 270.631 610.368 292.991 574.509 292.991H537.301V268.125Z" fill="white" fill-opacity="0.1"/>
<path d="M746.093 89.0669C705.029 89.0669 671.869 113.74 671.869 144.968V241.348C671.869 272.19 704.643 296.863 746.093 296.863C787.543 296.863 819.739 272.19 819.739 241.348V144.968C819.739 113.74 786.579 89.0669 746.093 89.0669ZM786.965 241.733C786.965 261.009 770.963 272.575 746.093 272.575C721.223 272.575 704.643 260.238 704.643 241.733V145.353C704.643 126.077 720.259 114.319 746.093 114.319C771.927 114.319 786.965 126.27 786.965 145.353V241.733Z" fill="white" fill-opacity="0.1"/>
<path d="M842.293 292.994L892.611 93.4868H926.157L875.838 292.994H842.293Z" fill="white" fill-opacity="0.1"/>
<path d="M957.204 213.972H898.981V238.838H957.204V213.972Z" fill="white" fill-opacity="0.1"/>
<path d="M962.982 93.4868L1013.69 292.994H980.14L929.437 93.4868H962.982Z" fill="white" fill-opacity="0.1"/>
<path d="M1076.34 93.4868H1043.57V292.994H1076.34V93.4868Z" fill="white" fill-opacity="0.1"/>
<path d="M1083.67 118.353V93.4868H1109.51C1154.04 93.4868 1188.55 120.666 1188.55 153.628C1188.55 186.59 1154.04 213.77 1109.51 213.77H1083.67V188.711H1109.51C1137.46 188.711 1156.74 175.025 1156.74 154.206C1156.74 133.388 1137.46 118.353 1109.51 118.353H1083.67Z" fill="white" fill-opacity="0.1"/>
<path d="M1132.83 219.18L1185.27 293.007H1148.06L1095.62 219.18H1132.83Z" fill="white" fill-opacity="0.1"/>
<path d="M1258.53 93.4868H1225.76V292.994H1258.53V93.4868Z" fill="white" fill-opacity="0.1"/>
<path d="M1331.4 234.588V151.893C1331.4 132.617 1314.05 118.353 1287.44 118.353H1265.85V93.4868H1287.44C1330.05 93.4868 1364.56 120.088 1364.56 151.315V234.009C1364.56 265.237 1330.44 291.838 1287.44 291.838H1265.85V268.128H1287.44C1314.05 268.128 1331.4 254.249 1331.4 234.588Z" fill="white" fill-opacity="0.1"/>
<path d="M1518.8 93.4868H1397.73V118.353H1518.8V93.4868Z" fill="white" fill-opacity="0.1"/>
<path d="M1518.8 268.133H1397.73V292.999H1518.8V268.133Z" fill="white" fill-opacity="0.1"/>
<path d="M1474.65 123.949H1441.88V262.544H1474.65V123.949Z" fill="white" fill-opacity="0.1"/>
<path d="M1585.89 93.4868H1553.12V292.994H1585.89V93.4868Z" fill="white" fill-opacity="0.1"/>
<path d="M1622.71 93.4868L1589.16 169.627H1622.71L1656.25 93.4868H1622.71Z" fill="#FC150E" fill-opacity="0.15"/>
<path d="M1692.89 93.4868H1660.11V292.994H1692.89V93.4868Z" fill="white" fill-opacity="0.1"/>
<path d="M1759.59 145.546V241.926C1759.59 261.202 1775.02 273.153 1801.24 273.153C1827.46 273.153 1842.11 261.009 1842.11 241.926V225.927H1874.88V241.926C1874.88 272.768 1842.11 298.212 1801.24 298.212C1760.36 298.212 1726.82 272.768 1726.82 241.926V145.546C1726.82 114.511 1759.21 89.0669 1801.24 89.0669C1843.26 89.0669 1874.88 114.511 1874.88 145.546H1842.11C1842.11 126.27 1825.91 113.933 1801.24 113.933C1776.56 113.933 1759.59 126.27 1759.59 145.546Z" fill="white" fill-opacity="0.1"/>
<path d="M1874.88 194.703H1798.34V219.569H1874.88V194.703Z" fill="white" fill-opacity="0.1"/>
<path d="M343.942 93.4868H311.168V292.994H343.942V93.4868Z" fill="white" fill-opacity="0.1"/>
<path d="M381.913 93.4868L415.458 169.435H381.913L348.367 93.4868H381.913Z" fill="#FC150E" fill-opacity="0.15"/>
<path d="M450.934 93.4868H418.16V292.994H450.934V93.4868Z" fill="white" fill-opacity="0.1"/>
</g>
<defs>
<clipPath id="clip0_1_175">
<rect width="2000" height="354.68" fill="white"/>
</clipPath>
</defs>
</svg>
